# xmcd CD database file
#
# Track frame offsets:
#	150
#	19273
#	41632
#	61368
#	77559
#	100060
#	122330
#	142286
#	162353
#	178727
#	197374
#	217608
#	240113
#	258822
#
# Disc length: 3722 seconds
#
# Revision: 0
# Processed by: cddbd v1.5.2PL0 Copyright (c) Steve Scherf et al.
# Submitted via: CDex 1.70beta2
#
DISCID=ad0e880e
DTITLE=LIONVILLE - LIONVILLE
DYEAR=2011
DGENRE=Melodic Rock
TTITLE0=Here By My Side
TTITLE1=With You
TTITLE2=Centre Of My Universe
TTITLE3=Thunder In Your Heart
TTITLE4=The World Without Your Love
TTITLE5=Power Of My Dreams
TTITLE6=No End In Sight
TTITLE7=The Chosen Ones
TTITLE8=Over And Over Again
TTITLE9=Dreamhunter
TTITLE10=Say Goodbye
TTITLE11=The World Without Your Love (Avenue AOR Version)
TTITLE12=No End In Sight (Aiternative Version)
TTITLE13=Say Goodbye (Acoustic Version)
EXTD=YEAR: 2011
EXTT0=
EXTT1=
EXTT2=
EXTT3=
EXTT4=
EXTT5=
EXTT6=
EXTT7=
EXTT8=
EXTT9=
EXTT10=
EXTT11=
EXTT12=
EXTT13=
PLAYORDER=
